<svg width="24" height="24" viewBox="0 0 24 24" fill="none" xmlns="http://www.w3.org/2000/svg">
<path d="M14.85 2.9498V6.7498H13.35V2.9498C13.35 2.6798 13.11 2.5498 12.95 2.5498C12.9 2.5498 12.85 2.5598 12.8 2.5798L4.87 5.56981C4.34 5.7698 4 6.2698 4 6.8398V7.5098C3.09 8.1898 2.5 9.2798 2.5 10.5098V6.8398C2.5 5.6498 3.23 4.5898 4.34 4.1698L12.28 1.1698C12.5 1.0898 12.73 1.0498 12.95 1.0498C13.95 1.0498 14.85 1.8598 14.85 2.9498Z" fill="#95929D"/>
<path d="M21.5007 13.5V14.5C21.5007 14.77 21.2907 14.99 21.0107 15H19.5507C19.0207 15 18.5407 14.61 18.5007 14.09C18.4707 13.78 18.5907 13.49 18.7907 13.29C18.9707 13.1 19.2207 13 19.4907 13H21.0007C21.2907 13.01 21.5007 13.23 21.5007 13.5Z" fill="#95929D"/>
<path d="M19.48 11.95H20.5C21.05 11.95 21.5 11.5 21.5 10.95V10.51C21.5 8.44 19.81 6.75 17.74 6.75H6.26C5.41 6.75 4.63 7.03 4 7.51C3.09 8.19 2.5 9.28 2.5 10.51V17.24C2.5 19.31 4.19 21 6.26 21H17.74C19.81 21 21.5 19.31 21.5 17.24V17.05C21.5 16.5 21.05 16.05 20.5 16.05H19.63C18.67 16.05 17.75 15.46 17.5 14.53C17.29 13.77 17.54 13.04 18.04 12.55C18.41 12.17 18.92 11.95 19.48 11.95ZM14 11.75H7C6.59 11.75 6.25 11.41 6.25 11C6.25 10.59 6.59 10.25 7 10.25H14C14.41 10.25 14.75 10.59 14.75 11C14.75 11.41 14.41 11.75 14 11.75Z" fill="#95929D"/>
</svg>
