<svg width="20" height="20" viewBox="0 0 20 20" fill="none" xmlns="http://www.w3.org/2000/svg">
<path d="M17.0833 5.16667H15V5C15 3.67392 14.4732 2.40215 13.5355 1.46447C12.5979 0.526784 11.3261 0 10 0C8.67392 0 7.40215 0.526784 6.46447 1.46447C5.52678 2.40215 5 3.67392 5 5V5.16667H2.91667C2.14601 5.17596 1.40953 5.48624 0.864552 6.03122C0.319574 6.5762 0.00929779 7.31267 0 8.08333L0 15.4167C0.0106585 16.6289 0.496966 17.7885 1.35421 18.6458C2.21145 19.503 3.37106 19.9893 4.58333 20H15.4167C16.6289 19.9893 17.7885 19.503 18.6458 18.6458C19.503 17.7885 19.9893 16.6289 20 15.4167V8.08333C19.9907 7.31267 19.6804 6.5762 19.1354 6.03122C18.5905 5.48624 17.854 5.17596 17.0833 5.16667ZM7.5 5C7.5 4.33696 7.76339 3.70107 8.23223 3.23223C8.70107 2.76339 9.33696 2.5 10 2.5C10.663 2.5 11.2989 2.76339 11.7678 3.23223C12.2366 3.70107 12.5 4.33696 12.5 5V5.16667H7.5V5ZM17.5 15.4167C17.5027 15.691 17.4506 15.9631 17.3469 16.2171C17.2431 16.471 17.0898 16.7018 16.8958 16.8958C16.7018 17.0898 16.471 17.2431 16.2171 17.3469C15.9631 17.4506 15.691 17.5027 15.4167 17.5H4.58333C4.309 17.5027 4.03689 17.4506 3.78293 17.3469C3.52896 17.2431 3.29823 17.0898 3.10424 16.8958C2.91025 16.7018 2.75689 16.471 2.65314 16.2171C2.54939 15.9631 2.49733 15.691 2.5 15.4167V8.08333C2.49659 8.02773 2.50503 7.97203 2.52477 7.91994C2.5445 7.86784 2.57507 7.82053 2.61447 7.78113C2.65386 7.74174 2.70117 7.71117 2.75327 7.69143C2.80537 7.6717 2.86106 7.66326 2.91667 7.66667H5V8.75C5 9.08152 5.1317 9.39946 5.36612 9.63388C5.60054 9.8683 5.91848 10 6.25 10C6.58152 10 6.89946 9.8683 7.13388 9.63388C7.3683 9.39946 7.5 9.08152 7.5 8.75V7.66667H12.5V8.75C12.5 9.08152 12.6317 9.39946 12.8661 9.63388C13.1005 9.8683 13.4185 10 13.75 10C14.0815 10 14.3995 9.8683 14.6339 9.63388C14.8683 9.39946 15 9.08152 15 8.75V7.66667H17.0833C17.1389 7.66326 17.1946 7.6717 17.2467 7.69143C17.2988 7.71117 17.3461 7.74174 17.3855 7.78113C17.4249 7.82053 17.4555 7.86784 17.4752 7.91994C17.495 7.97203 17.5034 8.02773 17.5 8.08333V15.4167Z" fill="#374957"/>
</svg>
