<svg xmlns="http://www.w3.org/2000/svg" width="15" height="15" viewBox="0 0 20 21">
    <path fill="#6C6B82" stroke="#FBFBFC" stroke-width=".4" d="M18.667 18.051l-3.444-3.449c1.284-1.442 2.082-3.352 2.082-5.437C17.305 4.664 13.647 1 9.152 1 4.658 1 1 4.664 1 9.165c0 4.502 3.658 8.165 8.152 8.165 1.596 0 3.075-.467 4.32-1.247l3.58 3.586c.214.214.506.331.798.331.291 0 .583-.117.797-.331.467-.448.467-1.17.02-1.618zM3.277 9.165c0-3.235 2.626-5.885 5.875-5.885 3.25 0 5.857 2.65 5.857 5.885s-2.627 5.885-5.857 5.885c-3.23 0-5.876-2.63-5.876-5.885z"/>
</svg>
